<svg xmlns="http://www.w3.org/2000/svg" viewBox="0 0 191.13 194.14"><defs><style>.cls-1{fill:#38b34a;}.cls-2{fill:#fcfdfd;}</style></defs><g id="Слой_2" data-name="Слой 2"><g id="Слой_1-2" data-name="Слой 1"><path class="cls-1" d="M97.86,194.14c-23-.1-44-.79-64.84-3C18.15,189.63,6.42,178.64,4.1,162.6.59,138.36-.26,113.91.06,89.43.32,70,1,50.48,4.13,31.25c2.73-16.84,15.11-27.5,31-28.87C65.23-.21,95.34-.29,125.47.31a303,303,0,0,1,30.85,2.18c18.64,2.28,29.6,14.08,31.56,34,2.47,25.19,3.84,50.44,3,75.75-.55,16.78-1.17,33.6-3.88,50.21-2.78,17-14.21,27-31.41,28.85C135.7,193.51,115.76,193.84,97.86,194.14ZM18.12,132.68c.48,9.11.64,17.57,3,25.81.61,2.16,1.43,4.18,4,4.5,7,.86,13.67,3.45,21.23,2.17,15.76-2.64,26.67-10.37,31.79-25.73A58,58,0,0,0,81,120.8c0-18.64.08-37.29-.09-55.93,0-3.55,1-4.5,4.46-4.4,8.65.24,17.32.3,26,0,4.36-.16,5.87.78,5.83,5.58-.25,30.13-.12,60.26-.14,90.39,0,2.55-.46,4.73,3.64,4.66,15.14-.27,30.29-.2,45.44,0,3.06,0,4.12-1.4,4.7-3.9a86.37,86.37,0,0,0,2.25-16.27c.14-3.59-.57-5-4.52-4.76-6.64.37-13.32-.06-20,.18-3.05.11-3.9-.71-3.88-3.83q.21-34.71,0-69.42c0-3,1.11-3.89,3.76-4.45,7.91-1.69,15-5.35,21.52-10,1.68-1.19,3-2.42,3-4.8a30.76,30.76,0,0,0-6.79-19.37c-1.84-2.25-3.46-2.95-6.2-.83C150.37,31,139.43,34,127.34,34c-19.14-.12-38.29-.23-57.41.45-18.66.66-35.58,6.41-49,20.23-1,1-2.56,2.24-2.65,3.46-.84,10.79-1.41,21.6-2,32.4,3.68-3.39,6.26-7,9.07-10.49a41.11,41.11,0,0,1,24-15c3.6-.76,4.55-.06,4.5,3.66-.19,15.31-.06,30.63-.1,45.94a57.07,57.07,0,0,1-.44,8c-1.49,10.53-6.92,15-17.57,14.83C29.78,137.3,24.48,134.88,18.12,132.68Z"/><path class="cls-2" d="M18.12,132.68c6.36,2.2,11.66,4.62,17.61,4.7,10.65.15,16.08-4.3,17.57-14.83a57.07,57.07,0,0,0,.44-8c0-15.31-.09-30.63.1-45.94,0-3.72-.9-4.42-4.5-3.66a41.11,41.11,0,0,0-24,15c-2.81,3.46-5.39,7.1-9.07,10.49.64-10.8,1.21-21.61,2-32.4.09-1.22,1.62-2.41,2.65-3.46,13.39-13.82,30.31-19.57,49-20.23,19.12-.68,38.27-.57,57.41-.45,12.09.08,23-3,32.57-10.38,2.74-2.12,4.36-1.42,6.2.83a30.76,30.76,0,0,1,6.79,19.37c0,2.38-1.27,3.61-3,4.8-6.55,4.68-13.61,8.34-21.52,10-2.65.56-3.78,1.4-3.76,4.45q.24,34.71,0,69.42c0,3.12.83,3.94,3.88,3.83,6.65-.24,13.33.19,20-.18,3.95-.22,4.66,1.17,4.52,4.76a86.37,86.37,0,0,1-2.25,16.27c-.58,2.5-1.64,3.93-4.7,3.9-15.15-.17-30.3-.24-45.44,0-4.1.07-3.64-2.11-3.64-4.66,0-30.13-.11-60.26.14-90.39,0-4.8-1.47-5.74-5.83-5.58-8.64.32-17.31.26-26,0-3.46-.1-4.5.85-4.46,4.4.17,18.64.06,37.29.09,55.93a58,58,0,0,1-2.85,18.63c-5.12,15.36-16,23.09-31.79,25.73-7.56,1.28-14.19-1.31-21.23-2.17-2.6-.32-3.42-2.34-4-4.5C18.76,150.25,18.6,141.79,18.12,132.68Z"/></g></g></svg>