<svg xmlns="http://www.w3.org/2000/svg" xmlns:xlink="http://www.w3.org/1999/xlink" version="1.1" id="Calque_1" x="0px" y="0px" viewBox="0 0 165.1 162.2" style="enable-background:new 0 0 165.1 162.2;" xml:space="preserve">
<path d="M21.4,94.3V3.7H2.7v92.5c0,39.5,22.9,63.3,59.2,63.3h39.4l8-17.8H67.2C37.4,141.8,21.4,126.5,21.4,94.3z" fill="white"/>
<path d="M97.7,71.2V3.7H80.4v79.4c-0.1,2.4,1.8,4.4,4.2,4.4c0.1,0,0.2,0,0.3,0H134l7.3-16.4L97.7,71.2z" fill="white"/>
<path d="M59.9,92.3V3.7h-18v89.2c0,19.3,11.4,30.4,31.2,30.4h44.8l7.7-17.4H73.9C64.8,106,59.9,101.6,59.9,92.3z" fill="white"/>
</svg>